# xmcd
#
# Track frame offsets:
#	150
#	16400
#	37662
#
# Disc length: 738 seconds
#
# Revision: 0
# Processed by: cddbd v1.5PL3 Copyright (c) Steve Scherf et al.
# Submitted via: audiograbber 1.80
#
DISCID=1402e003
DTITLE=Indigo Girls - I don´t wanna talk about it single
DYEAR=1900
DGENRE=
TTITLE0=I don´t wanna talk about it
TTITLE1=Galileo live
TTITLE2=Jonas and Ezekial live
EXTD=
EXTT0=
EXTT1=
EXTT2=
PLAYORDER=
